<mxfile host="app.diagrams.net" modified="2024-03-12T04:09:38.822Z" agent="Mozilla/5.0 (Windows NT 10.0; Win64; x64) AppleWebKit/537.36 (KHTML, like Gecko) Chrome/122.0.0.0 Safari/537.36" version="24.0.5" etag="f6013R61cIsoVgsgr7g3" type="github">
  <diagram name="페이지-1" id="3iVREs8BKlu2BywskdPo">
    <mxGraphModel>
      <root>
        <mxCell id="0" />
        <mxCell id="1" parent="0" />
      </root>
    </mxGraphModel>
  </diagram>
</mxfile>
